<mxfile host="app.diagrams.net" agent="Mozilla/5.0 (Windows NT 10.0; Win64; x64; rv:132.0) Gecko/20100101 Firefox/132.0" version="24.9.2" pages="2">
  <diagram id="53ZFQx9Nd3tKds-ePO_X" name="Página-2">
    <mxGraphModel dx="3287" dy="1520" grid="0" gridSize="10" guides="1" tooltips="1" connect="1" arrows="1" fold="1" page="0" pageScale="1" pageWidth="850" pageHeight="1100" math="0" shadow="0">
      <root>
        <mxCell id="0" />
        <mxCell id="1" parent="0" />
        <mxCell id="LlYiYwOJ0Ej7vkXhgRmy-21" style="edgeStyle=orthogonalEdgeStyle;rounded=0;orthogonalLoop=1;jettySize=auto;html=1;entryX=0;entryY=0.5;entryDx=0;entryDy=0;" parent="1" source="LlYiYwOJ0Ej7vkXhgRmy-1" target="LlYiYwOJ0Ej7vkXhgRmy-3" edge="1">
          <mxGeometry relative="1" as="geometry" />
        </mxCell>
        <mxCell id="LlYiYwOJ0Ej7vkXhgRmy-22" style="edgeStyle=orthogonalEdgeStyle;rounded=0;orthogonalLoop=1;jettySize=auto;html=1;entryX=0;entryY=0.5;entryDx=0;entryDy=0;" parent="1" source="LlYiYwOJ0Ej7vkXhgRmy-1" target="LlYiYwOJ0Ej7vkXhgRmy-2" edge="1">
          <mxGeometry relative="1" as="geometry" />
        </mxCell>
        <mxCell id="LlYiYwOJ0Ej7vkXhgRmy-23" style="edgeStyle=orthogonalEdgeStyle;rounded=0;orthogonalLoop=1;jettySize=auto;html=1;entryX=0;entryY=0.5;entryDx=0;entryDy=0;" parent="1" source="LlYiYwOJ0Ej7vkXhgRmy-1" target="LlYiYwOJ0Ej7vkXhgRmy-4" edge="1">
          <mxGeometry relative="1" as="geometry">
            <Array as="points">
              <mxPoint x="146" y="180" />
              <mxPoint x="146" y="291" />
            </Array>
          </mxGeometry>
        </mxCell>
        <mxCell id="LlYiYwOJ0Ej7vkXhgRmy-1" value="Atención a Clientes" style="rounded=0;whiteSpace=wrap;html=1;" parent="1" vertex="1">
          <mxGeometry x="-17" y="150" width="120" height="60" as="geometry" />
        </mxCell>
        <mxCell id="LlYiYwOJ0Ej7vkXhgRmy-30" style="edgeStyle=orthogonalEdgeStyle;rounded=0;orthogonalLoop=1;jettySize=auto;html=1;entryX=0;entryY=0.5;entryDx=0;entryDy=0;" parent="1" source="LlYiYwOJ0Ej7vkXhgRmy-2" target="LlYiYwOJ0Ej7vkXhgRmy-24" edge="1">
          <mxGeometry relative="1" as="geometry">
            <Array as="points">
              <mxPoint x="748" y="69" />
              <mxPoint x="748" y="180" />
              <mxPoint x="1173" y="180" />
              <mxPoint x="1173" y="291" />
            </Array>
          </mxGeometry>
        </mxCell>
        <mxCell id="LlYiYwOJ0Ej7vkXhgRmy-2" value="Valmex SI" style="rounded=0;whiteSpace=wrap;html=1;" parent="1" vertex="1">
          <mxGeometry x="190" y="39" width="120" height="60" as="geometry" />
        </mxCell>
        <mxCell id="LlYiYwOJ0Ej7vkXhgRmy-29" style="edgeStyle=orthogonalEdgeStyle;rounded=0;orthogonalLoop=1;jettySize=auto;html=1;entryX=0;entryY=0.5;entryDx=0;entryDy=0;" parent="1" source="LlYiYwOJ0Ej7vkXhgRmy-3" target="LlYiYwOJ0Ej7vkXhgRmy-24" edge="1">
          <mxGeometry relative="1" as="geometry">
            <Array as="points">
              <mxPoint x="1173" y="180" />
              <mxPoint x="1173" y="291" />
            </Array>
          </mxGeometry>
        </mxCell>
        <mxCell id="LlYiYwOJ0Ej7vkXhgRmy-3" value="Administración Institucional" style="rounded=0;whiteSpace=wrap;html=1;" parent="1" vertex="1">
          <mxGeometry x="190" y="150" width="120" height="60" as="geometry" />
        </mxCell>
        <mxCell id="LlYiYwOJ0Ej7vkXhgRmy-20" style="edgeStyle=orthogonalEdgeStyle;rounded=0;orthogonalLoop=1;jettySize=auto;html=1;" parent="1" source="LlYiYwOJ0Ej7vkXhgRmy-4" target="LlYiYwOJ0Ej7vkXhgRmy-5" edge="1">
          <mxGeometry relative="1" as="geometry" />
        </mxCell>
        <mxCell id="LlYiYwOJ0Ej7vkXhgRmy-4" value="Legal" style="rounded=0;whiteSpace=wrap;html=1;" parent="1" vertex="1">
          <mxGeometry x="193" y="261" width="120" height="60" as="geometry" />
        </mxCell>
        <mxCell id="LlYiYwOJ0Ej7vkXhgRmy-19" style="edgeStyle=orthogonalEdgeStyle;rounded=0;orthogonalLoop=1;jettySize=auto;html=1;entryX=0;entryY=0.5;entryDx=0;entryDy=0;" parent="1" source="LlYiYwOJ0Ej7vkXhgRmy-5" target="LlYiYwOJ0Ej7vkXhgRmy-6" edge="1">
          <mxGeometry relative="1" as="geometry" />
        </mxCell>
        <mxCell id="LlYiYwOJ0Ej7vkXhgRmy-5" value="Atención a Clientes" style="rounded=0;whiteSpace=wrap;html=1;" parent="1" vertex="1">
          <mxGeometry x="365" y="261" width="120" height="60" as="geometry" />
        </mxCell>
        <mxCell id="LlYiYwOJ0Ej7vkXhgRmy-10" style="edgeStyle=orthogonalEdgeStyle;rounded=0;orthogonalLoop=1;jettySize=auto;html=1;" parent="1" source="LlYiYwOJ0Ej7vkXhgRmy-6" target="LlYiYwOJ0Ej7vkXhgRmy-7" edge="1">
          <mxGeometry relative="1" as="geometry" />
        </mxCell>
        <mxCell id="LlYiYwOJ0Ej7vkXhgRmy-11" style="edgeStyle=orthogonalEdgeStyle;rounded=0;orthogonalLoop=1;jettySize=auto;html=1;entryX=0;entryY=0.5;entryDx=0;entryDy=0;" parent="1" source="LlYiYwOJ0Ej7vkXhgRmy-6" target="LlYiYwOJ0Ej7vkXhgRmy-8" edge="1">
          <mxGeometry relative="1" as="geometry" />
        </mxCell>
        <mxCell id="LlYiYwOJ0Ej7vkXhgRmy-6" value="Contratos" style="rounded=0;whiteSpace=wrap;html=1;" parent="1" vertex="1">
          <mxGeometry x="531" y="261" width="120" height="60" as="geometry" />
        </mxCell>
        <mxCell id="LlYiYwOJ0Ej7vkXhgRmy-14" style="edgeStyle=orthogonalEdgeStyle;rounded=0;orthogonalLoop=1;jettySize=auto;html=1;entryX=0;entryY=0.5;entryDx=0;entryDy=0;" parent="1" source="LlYiYwOJ0Ej7vkXhgRmy-7" target="LlYiYwOJ0Ej7vkXhgRmy-9" edge="1">
          <mxGeometry relative="1" as="geometry" />
        </mxCell>
        <mxCell id="LlYiYwOJ0Ej7vkXhgRmy-7" value="PLD" style="rounded=0;whiteSpace=wrap;html=1;" parent="1" vertex="1">
          <mxGeometry x="693" y="217" width="120" height="60" as="geometry" />
        </mxCell>
        <mxCell id="LlYiYwOJ0Ej7vkXhgRmy-12" style="edgeStyle=orthogonalEdgeStyle;rounded=0;orthogonalLoop=1;jettySize=auto;html=1;entryX=0;entryY=0.5;entryDx=0;entryDy=0;" parent="1" source="LlYiYwOJ0Ej7vkXhgRmy-8" target="LlYiYwOJ0Ej7vkXhgRmy-9" edge="1">
          <mxGeometry relative="1" as="geometry" />
        </mxCell>
        <mxCell id="LlYiYwOJ0Ej7vkXhgRmy-8" value="Fiscal" style="rounded=0;whiteSpace=wrap;html=1;" parent="1" vertex="1">
          <mxGeometry x="693" y="297" width="120" height="60" as="geometry" />
        </mxCell>
        <mxCell id="LlYiYwOJ0Ej7vkXhgRmy-17" style="edgeStyle=orthogonalEdgeStyle;rounded=0;orthogonalLoop=1;jettySize=auto;html=1;entryX=0;entryY=0.5;entryDx=0;entryDy=0;" parent="1" source="LlYiYwOJ0Ej7vkXhgRmy-9" target="LlYiYwOJ0Ej7vkXhgRmy-15" edge="1">
          <mxGeometry relative="1" as="geometry" />
        </mxCell>
        <mxCell id="LlYiYwOJ0Ej7vkXhgRmy-18" style="edgeStyle=orthogonalEdgeStyle;rounded=0;orthogonalLoop=1;jettySize=auto;html=1;entryX=0;entryY=0.5;entryDx=0;entryDy=0;" parent="1" source="LlYiYwOJ0Ej7vkXhgRmy-9" target="LlYiYwOJ0Ej7vkXhgRmy-16" edge="1">
          <mxGeometry relative="1" as="geometry" />
        </mxCell>
        <mxCell id="LlYiYwOJ0Ej7vkXhgRmy-9" value="Contratos" style="rounded=0;whiteSpace=wrap;html=1;" parent="1" vertex="1">
          <mxGeometry x="856" y="261" width="120" height="60" as="geometry" />
        </mxCell>
        <mxCell id="LlYiYwOJ0Ej7vkXhgRmy-25" style="edgeStyle=orthogonalEdgeStyle;rounded=0;orthogonalLoop=1;jettySize=auto;html=1;entryX=0;entryY=0.5;entryDx=0;entryDy=0;" parent="1" source="LlYiYwOJ0Ej7vkXhgRmy-15" target="LlYiYwOJ0Ej7vkXhgRmy-24" edge="1">
          <mxGeometry relative="1" as="geometry">
            <Array as="points">
              <mxPoint x="1173" y="247" />
              <mxPoint x="1173" y="291" />
            </Array>
          </mxGeometry>
        </mxCell>
        <mxCell id="LlYiYwOJ0Ej7vkXhgRmy-15" value="Servicios de Inversión" style="rounded=0;whiteSpace=wrap;html=1;" parent="1" vertex="1">
          <mxGeometry x="1024" y="217" width="120" height="60" as="geometry" />
        </mxCell>
        <mxCell id="LlYiYwOJ0Ej7vkXhgRmy-26" style="edgeStyle=orthogonalEdgeStyle;rounded=0;orthogonalLoop=1;jettySize=auto;html=1;" parent="1" source="LlYiYwOJ0Ej7vkXhgRmy-16" target="LlYiYwOJ0Ej7vkXhgRmy-24" edge="1">
          <mxGeometry relative="1" as="geometry">
            <Array as="points">
              <mxPoint x="1173" y="327" />
              <mxPoint x="1173" y="291" />
            </Array>
          </mxGeometry>
        </mxCell>
        <mxCell id="LlYiYwOJ0Ej7vkXhgRmy-16" value="Atención a Clientes" style="rounded=0;whiteSpace=wrap;html=1;" parent="1" vertex="1">
          <mxGeometry x="1024" y="297" width="120" height="60" as="geometry" />
        </mxCell>
        <mxCell id="LlYiYwOJ0Ej7vkXhgRmy-28" style="edgeStyle=orthogonalEdgeStyle;rounded=0;orthogonalLoop=1;jettySize=auto;html=1;" parent="1" source="LlYiYwOJ0Ej7vkXhgRmy-24" target="LlYiYwOJ0Ej7vkXhgRmy-27" edge="1">
          <mxGeometry relative="1" as="geometry" />
        </mxCell>
        <mxCell id="LlYiYwOJ0Ej7vkXhgRmy-24" value="Contratos" style="rounded=0;whiteSpace=wrap;html=1;" parent="1" vertex="1">
          <mxGeometry x="1207" y="261" width="120" height="60" as="geometry" />
        </mxCell>
        <mxCell id="LlYiYwOJ0Ej7vkXhgRmy-27" value="Cliente" style="rounded=0;whiteSpace=wrap;html=1;" parent="1" vertex="1">
          <mxGeometry x="1350" y="261" width="120" height="60" as="geometry" />
        </mxCell>
      </root>
    </mxGraphModel>
  </diagram>
  <diagram name="Página-1" id="K1qclzjLCSd83H38CRaD">
    <mxGraphModel dx="1266" dy="856" grid="0" gridSize="10" guides="1" tooltips="1" connect="1" arrows="1" fold="1" page="0" pageScale="1" pageWidth="850" pageHeight="1100" math="0" shadow="0">
      <root>
        <mxCell id="0" />
        <mxCell id="1" parent="0" />
        <mxCell id="ygprp_jiQ9DS4m_aR9y2-13" style="edgeStyle=orthogonalEdgeStyle;rounded=0;orthogonalLoop=1;jettySize=auto;html=1;exitX=0.25;exitY=1;exitDx=0;exitDy=0;entryX=0.564;entryY=0.011;entryDx=0;entryDy=0;entryPerimeter=0;" parent="1" source="ygprp_jiQ9DS4m_aR9y2-30" target="ygprp_jiQ9DS4m_aR9y2-7" edge="1">
          <mxGeometry relative="1" as="geometry" />
        </mxCell>
        <mxCell id="ygprp_jiQ9DS4m_aR9y2-3" value="" style="rounded=0;whiteSpace=wrap;html=1;" parent="1" vertex="1">
          <mxGeometry x="176" y="-57" width="106" height="93" as="geometry" />
        </mxCell>
        <mxCell id="ygprp_jiQ9DS4m_aR9y2-6" value="" style="rounded=0;whiteSpace=wrap;html=1;" parent="1" vertex="1">
          <mxGeometry x="85" y="172" width="226" height="210" as="geometry" />
        </mxCell>
        <mxCell id="Mj4WF_ou9WpPpcgh3H5z-1" style="edgeStyle=orthogonalEdgeStyle;rounded=0;orthogonalLoop=1;jettySize=auto;html=1;exitX=0.656;exitY=0;exitDx=0;exitDy=0;exitPerimeter=0;entryX=0.709;entryY=1.013;entryDx=0;entryDy=0;entryPerimeter=0;" parent="1" source="ygprp_jiQ9DS4m_aR9y2-7" target="ygprp_jiQ9DS4m_aR9y2-30" edge="1">
          <mxGeometry relative="1" as="geometry" />
        </mxCell>
        <mxCell id="ygprp_jiQ9DS4m_aR9y2-7" value="" style="shape=image;verticalLabelPosition=bottom;labelBackgroundColor=default;verticalAlign=top;aspect=fixed;imageAspect=0;image=data:image/png,iVBORw0KGgoAAAANSUhEUgAAAMgAAADICAYAAACtWK6eAAAABHNCSVQICAgIfAhkiAAAAAlwSFlzAAALEwAACxMBAJqcGAAADlVJREFUeJztnXmQXUUVh79kJgsJIUBCSAhEQDaLBISg7AWEHUtAjESWQkpZrALECKICxaIiiiibCIqBKhBkD1iUpawpiaCCEIVKYghEtiCEiCFkssww4x8n45sMb7v3dffpvvd8VadSmZnbfV53/1737eU0GIZhGIZhGI4ZoO1AiZkEHAV8GtgcWI9i1EcP0AH8C/grMBNYoOmQkRb7ArORhlQWexjY1UXhGcWlHbgK/caqZV3ARSTWSyblbMK0A/ciQyrfLAFmAd0ZnxsITAFGuXaoH7cAX0FEYxgA/IJw39Jbt+DnNmvT8O3n91rw0SgYRxJuGLMM6Qny0gYsD+BnN7BXC34Gw4ZYfmkD5gHbBszzOmAG8GHG59qAU4EznHtUnT8DewbKy4iUkL1HirZ7/qINQyvdsdGYqdoORE705WMC8cve2g5ETvTlY+8g/mgD1lD9S6hz7e/KxPAqP1sCjAntiBEHI6g99r5a0S8N2qleDqs1nWoGG2L5o03bgQSIvoxMIIZRBxOIYdTBBGIYdTCBGEYdTCCGUQcTiGHUwQRiGHVo13bAMFpgILAbMBkYi+xgfhV4CnhJ0S+jCTbEVtJ7qbWS3pUjrUHAIcCNwFs10u0B/kYCmyHLjAmkQqsCWQ/4HHAb8F6NtGrZb4GRjj6H4RATSIU8AhkJnADcB6yo8XyzNgepDyMiTCAVmhXIMOA04PfIbmeXh7Me8vXhjHyYQCo0K5DdavydK5uW1XGb5jXKxAVZHzCBGGViEjAxywMmEKNsZDrmawIxysaWWf7YBGKUjcFZ/tgEYpSNd7P8sQnEKBtzsvyxCcQoE8uRyPdNYwIxysTNwMosD5hAjLLwDjmuXTCBrEs7cDbwDLAUWATcg2yaG6rol9EanUgdLtV2JGU2Av5E7X087yJbFYY1mZ7txaqguRdrBXC0t09WEgZTXxx9bSHwqSbSNIFU0BLIE8An/H2s8nAN2Qp+JY3vGzSBVAgpkDeB67HLeZyxH3IlWNaKWLP22VqYQCr4FshC4MeIKJzeWFD2oA2DkQs28xTqIOAuYEfs5U+DF4D7gZnA35V9KSzn0nqXfkONtK0HqeCiB+lG7jU8D7mN1/DMWORW2FYF0glsViV9E0iFvALpAh4HzgTGh3K2L2UeYv0E2MBBOu3AScAPHaRlyKU6jyLDpwex4asKB9B6z9HX/lglD+tBKjTbgwxHbuaKhjL2IIOQaUCX7Oo4vbKyQtuB/pRxq8l03C8eDQdGO07TiICyCWQL4CJPaTe7BcVIiLIJ5GqqX0fsgg88pWsoUiaBHAYc4ynt94H/eErbUKQsAhkCXOcx/Wc8pm0oUhaBfAu/q68W99VIlq2R3bcu1z362kqqz2DZOkgFl/eDBKUM6yDX4vc04E1kDCVj1GQi8ECO5z4ElgDPIZsXn3DpVJE5Gn89R2/vUW0fFlgP0pfQB6aew9F5kCK/gwxDDkL55CZgsec8jOzsAjyJbHJsiSIL5EJggsf0V2EbFGOmDZm5PKWVRIoqkO2BczznYb1HGvyMFrYWFVUg15MxSHFGrPdIhyG0UFdFFMgXgQM952G9R1p8FtmHl5miCWQEchDKJ6ux3iM1BgCH53mwaAK5lNrTrq6w3iNNJuV5qEgCmQSc5TmP1cDlnvMw/LBxnoeKIpABSHQR3zsDrPdIl448DxVFIF8i4+WMObDeI21ezvNQEQSyEXBFgHys90ibWXkeKoJALgM28ZyH9R5p80/gL3keTF0guwGnB8jHeo+0uRjZxJiZlAUyEPg5/j+DrXukzd1IDOVcpCyQ02juno5W+RUSUt9Ij8eBk7Wd0GATJEiCz7MePcieq7wxYe08SIXQ50G6gCuRIIEtO54iP0Jmr3xjvUda/Bs5kXgNMN9FgikKZC/CdJs2cxWeueQbNncBbwNvuXUnPYG0ISvmTm8RqoH1HuHpAJ7VdqIvqb2knwXsFCAf6z0MIC2BjEN264bAeg8DSEsgri68aYSte+gxGXmfqGcrgHnALcgZjxDD7eiZgv8p3V5zdXeITfNW8DnNOwfYw/sniJhByDdGCHGsAjZ35LcJpILvdZBOZOHYOSkMsc4BdgiU1wzgjUB5Ge5oR67zPkHbkdBMQMacqfUeYD1IX0KtpK8AtnLpeOw9yNWEu7nJeo/0GQZ8X9uJUBxOmJ7DR+8B1oP0JeRerDXAKFeOx9qDtAM/DZjfMvwGmjPCMQiHcdFiFch0wr2YA4xBgh1vHzBPwx8TXSUUo0AmICfAQrMZcq/Etgp5G24Z6SqhGAVyLf5uom3EOOAx/EaFN/yz3FVCsQnkSOAoZR+2AP5AzkBjRhTMc5VQTAIZjt+baLOwA3A/Dk6kGcHpBh51lVhMArmIuIY2+yF3Sxhp8SByeKpQDEXmr0Ote2Sxk3N+JlsHqRBqHWQ1LVyWU41YepBVyFpEjFwPbKfthNEUX8fh+wfEIxBw/MEcMgy4lbjKyliXHuDbyHFsp8RU6XO1HajD7ji4MdXwwsvAYUikG+fEJJBYe5BevguM1nbCAOAd5GX8eGTG8WFfGcUU1SR2gYwEzge+oe1IgXme+vHOejeWrg7jTlxsjv6MVSProPlI8jaLVaHZWazoiGmI9QYOtwh4Yj3sXaRUxCQQcBQu0jNnIOs2hnsGA1v2sXFIsEA1YhNIzDNZvYyihGefA7ETsKiPLUaGtbORoIHrh3YoNoHE/qLei+/bdI0Kg5H7J68FFgJTQ2ZuAsnHzsjaiBGWTYF7gEtCZRibQFIYYvVyirYDJeZiAk2WxCaQRaQzxz2NcBFXjI9yJQFOf8YmkA+BBdpONMkI5ICXocMQAgy1YhMIpDXMmqbtQMmZisPz59WIUSCpvKiDbJLTOj9vyAzXvj4zMIG0xlDgEG0nSo7XszoxCiSlIRbAZ7QdKDlee/AYBbIAeVlPhYO1HSg57/lMPEaBrAFe0XYiAxOArbWdKDEv+kw8RoFAesOsvbUdKCnLgKd8ZhCrQFJ6UYd8d3sbrXMzMuLwhgnEDZ/UdqCELAEu851JrAJJbYi1o7YDJaMLOBFY6jujWAUyHzmSmQob43lF1/g/HcCxeAzU0JdYBfIB6V2HNl7bgRIwC4m+ODNUhjFFNenPXCTSeipYSKDW6aISYbM3lOhrwNPAnWv/DUrMApkHHKrtRAbsCrfWmYNEg4mGWIdYkN5MVre2A4Z7YhZIajNZMZelkZPYh1hFZRqwh7YTRmNiFshSZDGo2UiGKTF2rRmRE/uwILVhllEwYhdIkYdZRgKYQAyjDrELxIZY7uhBdigYGYhdINaDtM5K4Fxkv9gIYAwSLif6qweM5liG/r0gzdhB/fyudz9IKOumdlCJ4yPwL3qRxt6DgPUirXA/tXe93gE8GdCXJDGBuGNIv/97PenWJI82+P0jQbyoTfRhZk0g7uh/HqQDWKHhSB8aDWG0hzhvK+ffkBQEkspM1lZVfuY14kYT7NPg916jEjbBC8r5NyQFgaTSg1Q7l649hDke2KXG76YgoVM10S6fQjAQmarUnnFpZG/z0S+cbZEgeJp+LQGO6eNbG3AS8L6yXysp5j47FeagL4BmbP8qvt8RgV+9QnkeiUSo7UsP5bsK2yu/Qb9Cm7Hbq/g+HtmZrO1bTPYakZ0crEUK7yCQznvIscDH+/3sTeRdoDO8O1HSAXwB+K+2I0ViKvrfes1arYgbR5PGu5RPWwYcUKN8jBbYEf3KzWLH1fgcOyHvAdr+adhsYJsa5WK0yGBkiKJdyc3ackQM1WhDhlyzkb1S2r76tC7gMaT3HFCjPKImJafnA9trO5GBxcCBiN+1GA1MRuJ/DSet+qhFD7Kt/lXgWexdIxgz0f9GzGpLqD71ayRCKrNYkM5MVl9GI6vFlyP3GRqGN05Ev0doxV4HzsKCXCdFSmPeU4FfajvhgJXINvTHkc2MryMv9SlGZuwhgR25ZWAD4C30ewGzde3WepVmhOMq9BuD2br2BrBRvUozwjCRtNZAymBd2Ip4NMxCv0GYrWvfrFdhRjiOQ78xmK1rtk09EtZHxrnaDcKsYj+oW2NGUK5Av0GYiXUDX6tfXUZIdkDC5mg3DDNYhdxnYkTEI+g3DDNZBNyrQV0ZgUnpcFSR7R/AxxrUlRGYYch5Ze3GUXa7C5kkMSLjMvQbR5ltDXB2w1oyVNgGeSHUbiRltUXAng1ryVDjd+g3krLabciGUCNSjkK/kZTRlmBTuNEzFHgF/cZSNrsdOfFoRM4l6DeWMtkC9INWG02yFRZMLZR9AJzPRy/6MSLmQfQbTtGtE7gRGNtknRiRcAT6jafI1gX8Gtiu2Qox4mEI8BL6jaiItgqYQVpB9ox+XIB+QyqaLQYuBTbNUA9GhExALrfUblBFsE7gIeDzQHuWSjDi5V70G1bK1okEhP4qMCZj2RuRczD6DSw160bCrt6A9BQWmbGgDEIqWrvBpWILgYOw2FOl4Tz0G11KdkS+YjZSZDwSf1a70aViD+QrZiNVUrmlNgbrwI66lor90W90KdmFuUrZSJJ2JMS/dqNLxRZgmwlLxXT0G11Kdmi+YjZSZCxyL7Z2o0vF7stXzEaq3Ip+o0vFViA33RolYR/0G11K9p18xWykSBswB/1Gl4rNBwbnKmkjSc5Ev9GlZAflK2YjRTYB3kO/0aVid+crZiNVZqDf6FKx5cgWHKMk7I5szdZueKnYefmK2UiRgcCz6De6VGwusv3fKAmno9/oUrIp+YrZSJFRwFL0G10qdme+YjZS5Ub0G10q9j6wWb5iNlJkMvAh+g0vFTsnXzEbKTIAeBr9RpeKvYiF5ikVX0a/0aVk++UrZiNFNgTeQb/RpWK35ytmI1WuQ7/RpWLLgHH5itlIkZ2RyOHaDS8Vm56vmI0Y+B99w+Zkt7PftgAAAABJRU5ErkJggg==;" parent="1" vertex="1">
          <mxGeometry x="-257.9966666666665" y="107.99666666666673" width="200" height="200" as="geometry" />
        </mxCell>
        <mxCell id="ygprp_jiQ9DS4m_aR9y2-10" style="edgeStyle=orthogonalEdgeStyle;rounded=0;orthogonalLoop=1;jettySize=auto;html=1;entryX=0;entryY=0.475;entryDx=0;entryDy=0;exitX=0.995;exitY=0.573;exitDx=0;exitDy=0;exitPerimeter=0;entryPerimeter=0;" parent="1" source="ygprp_jiQ9DS4m_aR9y2-7" target="ygprp_jiQ9DS4m_aR9y2-16" edge="1">
          <mxGeometry relative="1" as="geometry">
            <mxPoint x="-57.996666666666556" y="206.99666666666656" as="sourcePoint" />
            <mxPoint x="170" y="223" as="targetPoint" />
            <Array as="points" />
          </mxGeometry>
        </mxCell>
        <mxCell id="ygprp_jiQ9DS4m_aR9y2-11" value="" style="shape=image;verticalLabelPosition=bottom;labelBackgroundColor=default;verticalAlign=top;aspect=fixed;imageAspect=0;image=data:image/webp,UklGRvI3AABXRUJQVlA4TOU3AAAv08P0EP8nJk2G/bv7zgGBpC3e9k9Agj6c5yhu28aR9p877eo3IibABwYFGFhQh35Uh4pOfbX5wAf2h/+/Iqf9/52Z3c1ms3HiIQKE4MGCu1txa7FSQ1qsuBQtFHtBBS1Firs7BChWXArBAiRojLhsVmbm+UeFMOecmc2Zj0T0fwLUtm3D5P/XeyZG9D+D//znP//5z3/+85///Oc///nPf/7zn//85z//+c9//vOf//znP//5z3/+85///Oc///nPf/7zn//85z//X8L5xZgo5V/NrFUxlB964nF3OrnMfLa5RxCvPeE8myy8awU4X4ZKbV4C5P0xrpqrtkQX1m/nWwkAwDHflUKhR+HvjsfL25XiNCNusVMv58O/Jneij2FK0T8ASOmHh5Q3aEH4wK5rnzngv8aFU6dZIvxXy+35TTy1HsbKo05lwnva57hQJnA/vKf4anu/0ryGw7vVj/et8P6v29JFN87yPgCQe2lqLZM2Qx/52f4UEYr1eChVGj6FYrU//a2zP6e5cKs7+3oBFHfRdwaKlNoFxS1lnhwRbdBScIE9N70U4AMmtaAHP6Kw2ADAen9JM0+thLHKuD9y4AMfDKJGnUfwYaWUPQPDdNoHzqfNssd2+OCFE/SU8N4CH77g2vTabtoGfdkvD7+TQI4JjejADcmTAYAjaX3XQE6z4NFg7m0LyHWXPxVq3AO5ZseNrmzUJLh23fJaBPnmj9RRwGudJBsA24OfWvly2gP/OJD3w7rk4wZng6zF9J89tAcuW2UGW3yJV+0WyH2fp/YATRdkljeEJ5zHSlFu0hydBqFXoczgfi2ycf0zQe5Fg5AGMfaN3GCzD9Gq3QDZv2mqRQi9JruCMXqC+a4X5XcrQotg3C07eNGWXC7f5oP893lpEbjvJdnBpUrE6vwK5C/9oNcioH5W+Uk7gggVewswtH6ONIkNUuUHtp+8iFT+BOD4trk2IeI2BpA/3Uyg0ttFLO5GahNMB3GArPFuxAle5wAsD3prE/hFWEDGWDfCBP9mAyylhXptAhpsxwIyJnkQJWKDDfC0foU0ik0z8IDseX4EqbzbDpgmt9QqlLuPCRSuiSQF1zBOAFzvldEquB/HBRxH6nJEMPb+C/A97K1V0P2EDUh3PzYRwH/aW8BX+p9eq4CGCtgApM8Px42P3WEBjK1DkWaxVTZGYIvr4IqVz5B4EXBOa6tdqPgIJ4DkhdEcNi6Nt+cB3k+itQvecXiB4+bQIA4LXYXvkyTA/JK/dsGwCjOAwpOf+HOy05Udd8cB2O9w1y6gUSJuALlHB5bmZeVSacJ1KxDwJ4OGoVM+fgD558dXd5ML59N04X0bVJCmIQ1jzUQSANierO0bZfxwnEf14fveikBGx0gtQ+h1MgBIebd/HVTDV/cBDCENR21LKAJiWj7TMrgfIwUASAXPjiwa2KCcl557D97gV7HF8JXn3lqBpHl9tQzGdQT5u1iQfPPQmlnDerVuUr9ObN0GTdt/Mmr+xhPx74okIGx2dy2Dfj5h/lkoys/JTH3z+m1aVm6BTQQiZ3XRMnATRBJRUduAhgoKLaenpmGAUsvvp2no41Bo1q80Db2VmjhW09BHqcH3moaPFdtqo5bhM0GpHfLWMowUldqtEA0DP11Sakk1NQwuP4NSz+mpYTDtVGzCRA2Dzx+KDTaatQvl45XbjTDtQpM05ZbaWrvQ367cHBM1C7p5oOD3e2sV3A8ruee1tQoVHik560itQpcCJQcHfbQJ/A+g6N801yb4nVN24gKDJqFpurKDuxW1CNwMSeHZxvAahMALoPQvRWgQOucoPstwTnNgXAvK/0oZzUHtRBVgn6TTGOi+F1QAPKyhMah0H9SgtMpNU6Cb7lAFkNFLUxATDyrxz/IaAuNiQS0Iy9y1Ay1egmrM/oLXCvjtBBX5uKlGgB+WpybgTHltQOx9UJXCpiAtgN9WSV2AdYk3++cysRDUZv4Md+avy2tQn9mTzIxfrRugRrMmmpm+ModBnWZNNDN8gRsElQJZE8zMXqmfraBasyaaGT3fxYWgYrMmujN5/ksKQNVmT/dm8EJWFILKzftfIHMXtdUKqrdoYxRbxzc4JYAKFuKa8Aydse89oKMk2nPePr1/4/L5M6eOHTt15o/LN+4lvMm2iRIlAB597s7MBc1OA+ILBS9uHv9t9rAeretVKxfq5+VudnMzm738QspVrduq25AZq49cS8wTKABZv0Sxcfomh6xAdCHnwYllX3eoGWo28KjYeYNbcEzbIUuP3MtyEA4cl3uaGbiQSYlAcMe765tGt4n20CGZ8uayLb5e92eqnWQAGSur6xg3j66nrEBqqeDhzrHNQg1I9vqght9svpcnkgvEhxMieIbN1GR9BhBazL25om9FE8LWGNXtxytZIqkAbH8OC+NZJtfYaB8jLubGy19JQOb8O8u7ReoR5rrSHZdcz5UIBVB0cVS0gV1qdDf+xM9fd6ziZ+Jkxvt1XPtKAiLbE7cOjDIgIuoj+6xPsBEKwHrnh6benNx0HBujny8CSI7Mh2dXf9u9RqCZk4tb1W+OvAMy5/85o547IqhbzQlncwgFIL7Z/01NL14WnItnQHSTXl/PasLGRN2Gfxdynl7cMLlvnRB3/gNxHpU/XfewCIgsvTvwaYQOEZYP7bsjWSITAFif7hnXsrQbV3y8ySc0pu2g8T/uvhT/Os8BG9yZmCGF/+Efxbyka9tmDmwY5qkrHp1nmXbjdz4qADJLyRs/KsUhEnu1WvVCJBQAOFKubRjfrXqwl5H7T3p3v8h6XYfOXHPs5tNUiyDBPyfVY2FKHYZilQpf39k7f2jHmNJ+niYXPc/rXUyepUJj2g/5Yd9faQ4gtJS8tqUHIrZbw5+TRFL9Xch6fv3Aylljvvi4e+ePuvb+9JspS7adu/8y0ybB+wozdQxM+7Ti+UfJ+i7x3h/7NqxYunDh0hUb9p77K/GdVQJyp29oYUZEd62//I1Ern+WhKK87MyMrNxChwTFfi2SfXFdJn0Ayubu6eCOiG9qtimTcPIs/JR9qfYQlKHtfH9fREXP7ics1IO93qwLN9amCKSEqeEcomXQqPsC7VKbsy7BZ0AJ5myup0cU5WNWvaMcLHFhXHpkKQDh1mdeiLLm3pfsdIuvwLaYNwD9s36tyiHqclFL0qhmG8G21E2knvjX5x6Iym59rgoUg1P+LItuhkg7y87aPKI0V2VdHsWyOrMsEdeA8m+nBSKK+4xKpBesdWVYBhXSTbrV04iobmh7QaRWYk12xWsvUN2+vxaHaF9xUxGthGkcs9I8hWp5P4chBRgwJ5NS8GdpVsWwBGieNtELKUK3IS8pld+fVakQT7PEQUakEA1d4+kEuzwYlW/sFLv/kQ4pRq7ZFYlKb5uyKX6ngN7XmnJISdaKE2kkLtQzKZ2yqSWdr4MUZpXDIoXgbnkWxbgWaC3F1UCKs/x+gUKW4SxKjee0kk7HIAVabq9AHzjqx6BMFSglnamOFGnUfpE+6R3Zk9A/gdIXaiOFGn1Uog6sNDEnn+RT6kYjpFirnaXP4+qsicdOoPPDNpxyQXWvU8c+kWdMGr+h06tePFKyrR/RBv4IZUt0C0QqZQ7XI0XL931Lm5zebEn5O0BjyxwzUrguY3IoA5vcmZKhFhqJv/shxeu51EaZFw1ZEr+jQOOz0UgBl94n0UWcrmNIIk6IFEpojhRx7Vt0SejLkvCVfsulTtZXvDLieidTRPijpQ4xpd7DH1NG+MkdKWTjzCJqFG6oiFhTfeNDVqrElUGKOWgvLVK+K4UY1JDZyRR52QYp6HoPqSDd+9iEmFTXbn8KtCiabFBS/NBcCtiP1ucQo8pVXJ1LiQNBSFF7/y4RL/eXSMSweg19TIWkFkhh14wn3cuRnohp1TU8aCWf7TsXpcUNLySadLWjAbGuwbNSiBcXjhS33x6S2XZWQwyssesVgWzpPZACb/GKXJk/BCE2tsKaXJJJv3koMeN8gVTPPnNDrKzn0McES6iHFHnFW2SSrrTWIXZW1/BgEanssw3KjB9hIZFwtAZia4NnpxDqZgWk0ENPE8ixIwqxtq69bkkkKhrDKTU0IJc4js3hiL3lYg/aCXQpHCn2gEOkcWwJQ0xu5KpC4liGIwXfN5ss4u4IxOj6zcslzcXSSs7/EFlOVUDMrseULLJYRyBF/0kOSW7VQQyv27gsotwso+yCThLkZWeO5UGmKbkEEaZwyg4NKSRG3mgDYnvd51rI8aQaUvhlrpFC/M0bsb6+qxzE+Nmg9PjpDkJcqYTY37ADEiHSWyLFX+s5GdL7IBa4xk1CHPRWfqYNRBCWmZkg1O0tEWxfIhXYPZcEt6shNtjluyISxEergZDLBCgYwTNCKHg/CZa7qAFulojfiWDEDDd9hl9OF6QKm6Ril9UXscOGKUXYXSmtDrxPYHfAlyFC4XHYLTKoAzRRxCy7N2KK+2Rilv0RUokNUzA77scWeW/D7Fq4WvA5jVfhF4gxbp+C1wqjWuBmSVjdimSNPDZhZRmAVGO7HJykeTrWCHVIw+lJNfUQfgun1KaIOfbag9Mhb/Vg3IDTcV/2CPXPw0eczqsHNEzAR5iEGOTSV/DJ6Y5UZJNUfFIbs0j8LAGbB5XVROg1fM4HsEiocTI2x3zUhOsmfJbomSSfo7hICw1qghsn4lI4ALHJkwRMij5HqvKjPFze1GCUmqRiktxCXcQk4HIxiFEKvITJX2XUhf8FXNabGCXDL5gc91UXpk24fIdY5c+L8Fjhqi50MyQ8CgcyS/VSsBAmIJU5yI5HRnNmKeQWFoUD1Ea7TDxeVWGW3HdikdJKbdR8ise9MswSvxCLhCpqo/QNPM4HM0voGzsOt0PUhk8cHodLsUvdcnE4XUptmLfhsdOTXWqQjsN2D7Vh/AmPzWZ2qcIrHFYY1YZuuojFBjd2KeIBBtJcXm2gEQIWa13ZpZBrGIgTkeoc7GDMAs9jIIxUH30tjJnfaQyKvlAfXXLYv4IB6qP9O/Yvp7f6aJHM/mV1Vx9N37B/mV3UR6NX7F9GJ/XR8CVjFnAWg8zOmqfgKxhkdVcfTd4wZuH3MMjpqT6aJzNm5ZMwyO+nPtqmY7HexC7FpmJg+Ux9fJSFxSYzu9QxGwPH1+qjVwEW2z3YpS+sGIjj1ccgOxYHfNilWYChNEt9DBOwOBPILJk24AA/uagNfoqIxa0IZingEhabzGrDZbGERWJFZqnaKyyO+agNt98By7SGzFKffCyuB6kNr+N45PVmlfh5gOWjaLURdAUPYTyr5HMcj9dN1EaVR3jACgOjVOMlHrl91EaLVExO+jFKQ614OEapjY+LMHlekU1y2wp4Sv8zqAtuvIhJblc2qdozTGCfl7pwXQ24zuKYpJFWXG6UVhc+p7E57M0i+R4FXF/UVxcV4rF5UZ1FapeOTUE/ddE6ExvrUAbJdRVgK87gVcUwARvYbmaP6j7HB3Z7qgmXlYBvYnXmyLBQwOhOGTXh9wdG9rHMUe3HgHF6OzVR+yVGEOfPGBmXCDgJ36qJ/jacsroyRs1eANZb3dWD/mfAepOZKfLeDHjfjVIPARfxetOMJeIGZmOW01U9NErFS1ptYogqXgHMpXl61TBGwAteN2eHzD8LuMHZALVg3gu4b/BghbgBmYB9SjO1UO05dundWKHafwH+4hReJXxpxw6Oh5JPF1nfRKmIep4lJ6H7gIQnS6kDtx2Av2W8nnDmOjNvJHSkk+fqtzv7helKRjyW2ImQ2lwdVE8kADxpRDI+uPuGFwLAiTAacQOzAfIvT63lVgLi8m0eEFGarVMFI+0kgN2BxHKt+m1ctgQAYJ3hQqHKN+HvjudrOgdyJRz6QSlAyD9D1YDPUSBi4RQXInGl2v7y0Ab/+rIVfdyXi/8AIGWeHFnZWJKh65kEpMzroQaap5EB3nQlkD7qywNpIvzXI8HU6ZsJ/7Xo3tKWPlxJha5rApBzvUn56RdLhIDrNUnj3mjezUJ4z6JJespEX4H3FFP2Di6jK5HQ90gAgibVVH5Rd4GU0v4wknChfbe+EuD9k5rQxfSj8D4AUHBtdj23kgfjgEQgqfgdp/iGFREDHKt9iWGsPvlirgTFut+fKj3SoVgdSRt7BHIlC+ZRyUDW6+FKL+AEENQy34MMvh1+fWqH4rZ8q6NI2QtQ3FLOubFVDCUIQQuygbBFXyi97lkkgbzpZvz0UcNPZErwAZ82oIfrIkexAYD98fI23iUEXMxOKxD3pJ+y89wGZM2ZYsbMo/Gie1b4wDt9qdE5GT6s9O7Il2V1JQCuPW9KQN7cPsqudQphIGemF0a60v12p0jwwQu+4SkRcQY+fNGdeQ3Mzr7Q79OAyAd8lJz5NyBu/pIAXEy1pl0pBFk+jKWDyxybDACkN9v6hPBOPH2TIzYgc3ZPJdfiNXnAujEKBz6gy9pEAeS6yZsK7V6BXPMvTqxuctb5fPMUiL3fV7m5/wYkFk424mXn+dXpbJBx7lc8BUofAxk7ElZ18uOccFzVdXlA7uyPlVvbt0QCiO9nklv4LZD33RrkM0wrkhMAZC10db659b4mAMmPByk17y1A6tTp/jLzPiwzaa0X8Vokgdx/1TvdwualAtkLhnEKrWcGsaBwUyV5GRZL8oKsTznCBR0AudtGIye7rtlRK5D+anllFnwcCC6cb6OXExpmkxncrEY2/USL7LLbOdl8RiQA+e2zXJQYP8JCMoBnQ9zl1DZNbuIab6K1SATZP6nqVOOqrM8DGj5rrMSq3gXCZy0OkVH5B3KD3GE6goWfAPmfKuVMc+11XQA6bvZVXm4/iaQD276anGx8T8oOElqQy7zUgcEavRMtdF4q0DJnMKe4uqQB+aVb3Vzk4rJMfnA2mlT6YTkgf/u3yGmub3LUBvS8UVlphccBFd+M9ZIJGuWQn7gxgEzcRy8Aw9wOTjOfb54CTcVlHsrKZY6dDpC/soxMPsqQHxQt9CRS/TuA49NqzrKAVflA14x+nKLq8AZo6ThRj5NF5QQMIG+KG4FizgOWZ/2cZWGXgLY3qympMueAnuI8gyz8/sABMkebiFP5hITHWp2zjP/OQRtpvY9yMi91UORdJyRL1zVYwLtRboSpckwELB3jkNO89jPaQMFovVLiBmUARY/6yQNNELCAjAkeRKlxQgQ88zo6z0zrqANJbZRS/XtA0aLhSKY9cvCA7Ll+5OAaXZAA0+fVnGeoSxZ14EK0Mgo7BDS9U0EuMUmYQOGvkaQwdLsL2J73c6IFnKaPuMFPCXkutdFEXOQil4A/cQH7kbocETxHvQR8N+idaGiUjTpQOMNV+ehH5ABN3zRHcjX9jg1If31iIkC5FbmArzABOdMrPqAPpA/mlQ7X9SVQdZeXbNA0CRuA9IXhuLl0+MMBGBd85FTT/0gheNpe6TS4C1TNG4jk2zcPI7Cf7eiKVdjsN4D1ixpONdQijUJwo46yqXgG6HolXEa1XuMEkPq/ijw27j3O2gHvq8HONc8DNILTFZVM2B6RLo7pvIyCbuAFwp0RIRwWxobrMwD3A67ONfSphUbi3kjlErjOAXR9XgfJ2LwdM4Cis4OCONkZa//vhQTYL9c52SJu0Agcm0KViu8vVqDsejc5odnYARSc/iJCJyv3RkufiYC/OJVzsvGzJBqBbU2QMvFZbAHKZnVDsh5kwQ/AcmVaHQ+56EN7/v5KAhI6vkTO9rqvqATWlYFKxHt+IdA2LkBeTdJIAOBI3Dq4kpn7YPqAlrMu5gAhbT2cbm4b6QRFq4KVh++CAqCtbTSSd7mnZACAwvhNwxsEGIuP94zq+v2ZZAGIWdjW6YZ65NIJbGtLKw3/JYVA3YeVZBZwiRgAYH15ftnwdtH+7vr/xhm9Q+v0/W7XX1kikDSrmfMt6BylwL6trLIIXWUB+v5kkJnnXpIAgGRLe3R+y6IJQz7p2q51yzYde346cubKQzeT8kQgbXoj5xs31kEpEA5WURJlN9uAvmktkcyNawjzz5Joy8tMT01Je5dtcUhA5tQGzjdU7RGtQPyjAacYYg4LQOED3nLjFhGJimnOOOMyagHc7axXBnyLSxJQ2DIYyX66Usto4oRD7dLpBS+GmpWA8eOHQOWbkfKbICm0vJbOuFKHKQZZPwTRz2dSKlBZnK2T32hBoVk7OePQEAvFoGhHDEe58msKgM6v6iH5j3IoNHt/p1z52zQD6VpXI830rc8JQOlN7upJGO2UM8wXaQbw9rtAevmOTgRa5/ZEGI4VFRrM551xqMkruoFlTwMdnfgav+cDtc8F4zAVlPpmvVPOczvlQHr4TSkaeX56WwRq28fxOMxTbGe8nXKoXy7lAPK31dfThq++Jgso/rgawtCwXLHFl3fOhV2iHkiPxwfTpdSwuwLQfLkrDubtii2jqXOOn2ovJsmR8/rxnauXLpy/dO1uwtt8QSIXgOV4Zzd6GFvuyQOiS7aMF/HXL507c+aPi9fjE9MtgvQe6e0QjqXiFJv9C+ccqvX0/YSsh3FrJvdvV69yZLCfj49fSNlqDTt+On3jheeFEqEA0lbV1tOBr7z4tQTEFnMenlgxvk/L2tEhfl6enl6+odG1mnX9bNKSLSevPnidYxclADjsh0VYvGKDZbxzzvTbf5HsaXePLPmyZQVvFx69N28sFdN15uFnVjKBmDAjiiMfFzbungCElvLv7xzbJtrTwKH35/RG98DoOq17DZ+1cu/pfhwWtd8qt7OlnHOoc8bfxKI31/fM7d8o0qxDH5L3qDpw/YMiEgHYb40J58jGBX112QqEzrvxc/dyJg59cF5v9HRBWPbIVW6vYp10/scLEy9untYzNtSVR7J0iR68+61IIADrlRHhPLm44M/OWIDMjqdru4fpEdknisrNNsRJx9frFONv4JCs3RstjLcTCMB69dtoPZl0kUPPFQKZLVcnxxgR6Y3rQMFvMjrnkvSVpty2EQjA/tfsWDfyuMZMvlYEZC48PyycR+QPvKLkHlQsQUFIFz3tgUAgADHxty6BOpLwpdr98tgBZLZd/TqUQzSsn6zkCj8tUUFIX+OntyQCgKzT42t7cIQwx4w8mi4BmaWnM8txiI7DrUoOtppLVhBy63isiEgAjmdbP69sxs9Uvv/6xzYgde7WhgZESdMGUPSJsSUtCIVOfUkmACh88PsX1b04fDiPygPX3M0HYksPhvkiapa7p+wc3/ElLsil7RkHoQDAkrBvYpvSJhxcQ5qP2fEwXwJyW/fU1SF6fpyn7OBKZMkLQuVW5hELABxpN9aNahXhwcuHdw9r9vXqK8l2IHr6nCBEUddfQeEXflUSg7zGviXY3+1p9/bO+6xpGV9X7sNwRp+IhoNm77iTYgPSJwwyIZpWjFd6cDq4JAa59HlMtn+0pD4+s/774T0aVwz193Z3NfD/xBtc3b39Q6Ibdh0y67eTD5ILJSC/dK21DlF1mEXx5Q8ukUF8q5vk+2d7buqLB5eO7ly3fMkPc+fMmfvDkuVrdxy5cD8pJccGtBTjYhFdfQ+D8o8rXSKDUIPLEh2UoHCkCqJsp3QVUDiCL5lBdS5I6kg4WAFR1rwO1OCtyiU0KPa8pIaEgxUQbZu9UgXC/9xKaFDseUn9CAcrINq6rZZUASR/VFKD6lxQPeLBCoi6rd6ASoyLLKlBdS+rHPFABURd7y2gFh2L3EpqUMObqkY8EI3o+3GWaoB3/biSGtT6sYoR90cj+pY5Dyryfv0SG75vsmoR90Uj+hq/t6sJOF6mpAa5jM1TKeK+8ojCHd6CqnSs8yupQV4rBFUiHoxGFC5zDlSmZYFHSQ0qe0aNSCcqIQq7/yKoDcid6lZSg9q8UCGXayIK64blgvrMGmcqqXGZYlUdD5sjGrdPAjWaOdZUQoNCjqiNlL48jWJvgjrNHGsqoUEd3qqLwilGROEKp0CtZo41ldCYlgpqQtzkiygcuVdULZA51lQyg6rfVxM3qyEKR2wXQMVmjjeXzOin2tRD5ieIwmW3O0DVZk3zLJFB0TdVg7jcjUKV9wmgcvMWBZTI8JNsauFOFURdrkGcCKq36PeokhhU6Z5KKBzGUcfQ7Y4EKliIa6IrgdEvENXB0QBEW++xr6GHUJiV+uL+lbgje7dv2bxly/a9R85cjX+RmlUoUALg8efuJS+o4WtVkNUdUZartDYfSC8VpD2K2zh/TL82tcuHB/v7eLqbzWazu5evf0hEdJ12A8Yu3Hz2SbpFIh9kLyvPlbi471QFO70oY+59VQSiF769tnlGvwaRfiYOfUDeza9s44Gzt91MKSIcCH/2cS9pQYMtKiCjM6IqX/nnd0DwwqRTiwfGBrlxSKacOaT+5z+efVVEMoDM1bX0JSzl76uAfT5UCRx2WwBSC+lXlw2K8dEh2etL1fpi9c1MkVwgPZpSji9RcVmr/PL6IYr69DxaCIR2JJ+e0SbEgLA1hnWc+0eaSCoA29WRZfgSFNS/SPFdLC0z7yYxwa4cJn7dd2cCmaX0s9Ob+fEIc11g67mXsiRCARRdGV/ZpeSkSoLSc0zhZdYtKenM2inda4W58TLTR356KBPIbLn7Y8dAHhFRH9pt1QMroQBs95e09uNlxus4J535oNJLqovkbV4PAODIfXVx06yP60W68zLhfBvPvlIARJbSjwyrYEQENVUddSqLUABi6tFx9Xx5OXC80T8qtv0Xs35u5KRD0yWFt9NTZnWf/+0fhfy313bO/7RxlKfuA/H+jcYfeusAIotJv3UqxSHC8oHdN72RyAQAtleHZ7SPMnPFxunMIVUa9Ri1eNOJO6+zCkVY4eqk61yg7KzDkLx1Mxz/4R/FwrQ7B34c0qKit65YOL1/jT6LTr+xAZmFR4vquyEiezRb9lwkFAA4Mu/snN23QZSvgef+jeMNXpE1Ww6YsmL3+UdpuVYJ/vVRdSdd1afK7lktmUX8CcUqFWXEH1v1bdcGlUr7uOp1Op1Ob/INr9q49+S1ZxLzRSC08Oj76i6I2K51lzwXSfV3oSDlzsltv8wY9UX/Pn37fzZy2tLNx64nZRU64L1t4znnnM85ZXfQW2YDC4rnHyV7QeqjK6cP7Ni0YcOmXYfirie8K3QAuaVnP8QYENGNdX56JZHrXwVbkaWw0FJkc0hQ7OdCnHOGDYpOmMbLy3sXKMWU5bEGRHzXRuvfkU6W2b2cc9w0SclldEbybpasEPJ2tzYhKrp3PmqhHmx0d8qhAQ4ld7+8vAyLJEXguDrYB1Ez4Ou7Au2S6jvn2uYruUPe8oq+B0rw7cIoDlGUr7IsnXLCLL1Tru4bBSct0MtruFUBWE+0MyLKuvU4b6caXCvjlKv0WMHZhiBZ+50A+r+eEYooXHZhKtUKBzvlIu4ouPQO8uqURT17XHsXRGVTzz8FisE+b2dc4FUF9zRGVq6/Au0zlpZBtOYqrcmlWEpLZ5zvRQV3O1RW1Z/R7uFgd0Rx75GJ9IKlLk44z3MKLq6UnLjJDrrZjzfWIaob2l4QqBVfka3Y6SGnkEtA9fyVZRD1K24uopV9hBPO54KCW2OS08d5VEud6IMUYMD3mZSC0/7Ot4A/lZu0xCAj9+1A8yf9jUgRug19Sanszs63sFsKbh4vo0ZvaHa9DY8Uor77AzrBOlenW4WHCm42Jx/9fJFeUlwdpBz55lclKiXWdLrVfqmKyt0GagsHKyNFGXtWpJEwjXO2tcgmklSMZJojoyEWajl2lEMKM+aoQCG4Eups620niliY/PjqkU3LFsyaPnnSf506c97i1TtP3X6WbpWIskAnG98jQGv7lgikOCsdFChU0M/ZNk4khj355rYZg5pHB/qYXXj03rze1cM3JKb9kIUH72cKpIBfXGTTPo1Wjk1hSIFWOCDQB3a5O9f0K4CIUv79LaNahLnz6MPrvaO6TDuUaCPDBje5uC6XKOXYGo4UacUjIn2SGzvXzMdIUBS/pn9Fdw7Jl/eJ/Xr3S4EAB7zkEvMI6CzujkQKtcopiTrSIp1TLeIOdtK7w8Mqm5DsOa8G0y4XYHcpQCbcOBudpKPRSLHWvEgduFveqVY3GTPp9doOpTiEpy580IFMzO6XkUnwWaDzhRikYBveoU7RMKda9yK83qxsYkYYc75d92Rj9bK+THpl0emvxkjJcu2f0QaO+TnTJog4ZW1qZkK4+/Q6acEop5c8zL8DlV924RQN0g1Ipc27Dk403RrA13a2pwciYdCI+yI2jtHyqJdEpawheqRwjRPyKQMrXZ1nHqfweTk9DBGSr7YmGxdpqYsc9LMEGlnnmpDi9VrmoMzjGs6zcvdwsZ9oZUDkdB94V8IDDnjJocw1oLC01R8p4IjDlLGNdp41SMMkY2EYIipXY7sFjxuhcqh4RqDQn5WRIq53jyrilRbOsz5WPB4PdkOk9Z+ZhsXzWDlwFX/Noc6rjkgZ8/3SKFK0oxpynk8VcRAvNNch8roOfIJDdnc5IOQ19JFEl4LxBoWE3ObZqPFubiBynus2AIaO/dUQkXVtrmPgGCEPpGt0oIgm0mY/pJhLH6LF48FuyInuHYeB7fdIRGiu7jlJdtJigzwQCpn1liJ3aiAF3SSBCo64pjrkTI9+ID/r6mBE7uonJbnBPi+5INeulwVaZA7ilJR+dAEFCn6LQs71xhmys60ORCSvdkqS27UQ2SCu4qpcOoirPJGiLrWDfG8n+iIne/8iuTl+D0Zkr3Febs9qyQchr68eSjS4WQ0p7PoJhJPu9DQiJzs3S5SZtDcCkb7BbZlldZET0jXYbyVfzhec0tKNKyKa/WAsh5zths0g8/NVEPG5js/l5RguK4SCZySTTtrqgxR30DGS5fwYhpzvfudk9rg5oqDus3eysk3TyQsZu1wWyPa8MVLgHVLJ9eIbD+SE95x8r0hOGYN5GiDX7wrlk3N+fDkkd67C6lyS2ecYlJhpmUQo6VoHPXLK66OGH3snycW6wA3R0WeVQx7Cy829gjiEoeeQRxK5rkUhRV79IZnsB6ojpz1XquPqBLs8DoUhWoYdkGRQcGNOfTPCVNfggJVUBUORMucn2UlUtDYcOfVdq0+6kCOD+AaInjFXPpSYsv/zMnqEcfDsFEIdD1RoKPJPAhUs8UfOfj6079aXwgfK+IynCGr1+INY439q7cMhvI29bkskyu6DFPsQC3Hy5/ugkkCPRnNvFn4I22IzoinfP7X4Mk+PrmJE+HOxh+0E2uuj3ELiSFO4wBuVEBrKfXEwTSq2o+GIrsYJecXjeL6uWyCPyBj5q4U4mV2Qgh9cQBbrz76o5JDzbfPzA3vxPGqEaOv1o7UYCv78LtYNkdNvfh5p9noruZA4ogi/B6GSRWOVMWdyiiHrc546KHSn+B5S8q7+4XpEVM/vcsiS0wMp+i8LSXK0HCpx5AO7bXghvodjqRlRuPL5/2S7t6ipJ4dIa56cQ5QjpZRd+EWC3KmLSiTdYmdct/yn4+GIyk3j/y3rxLDyBkRi8/Q8ghQOQsqe/9ZKjJTeXMkEQrrwgftSpX950gTRmevz5m+OZ792KMUhQnsuLCLHpTCFhyrfI4V1pisqwfRstiTe9rfsL3WUQoYxOZB/aXJ1IyK4/zoHKewTeaXnskgkxMFgVLKpjx5xKksSfvJA1PaYvbVvMIfIHnmMFE9ikOJv9oYMz5qgkk+/zus3lUEUdzMh8tf9ixCrTMrPaxcRrJP0JSAImXw5mlGR65tGhMzOSAUOLiDBqRDEBrvOtZPgbLAaiLpNgIxuiBUOPUYAx1ReDbgslfDb4M4ModYv8XvdEKnCjzKwe90EscMucxzYHfBVB8EXsVvhyhChspdws43l1IFunojZm0aIKR6Ui9mr+kgldsjAbJ2JLfLbj9mRUmoh5CpemR0QY9wtAythBq8WDD/hdawUa+SzC6uMtkg1fpyPk/1rxBz3zMLpWqR6qJCA05Oq7FHAMZzWuqgHj304bTCxR2ioBZ+ioUhFThPxKRqEGOTo2/ikNFITnbLxeVyFRTIskbC5XFpNlHuEz24PFgm1f4fN7y5qwvMANsJ4jkkK/gMX+wSkJrn52GS0R0wyP1/EJLeDqkCDLLjcLccmoU7ZmDyLURf1U3E54MUolb2NyTl/dRH2FybSfAOjZNyCyWa9uvA6gIn9K8Qqj7NjIc7i1IX+J0wyOzFLbbKxsA5EKnOsgMfzWGap4kMsclqojd75eNyOYJa8T2ORGKM2GqbjccGPWdKtw+JGmNoon4jHIW9mCU0XcTjtqTZCr+Ox2Z1dGmzDYadebfgexeNXE7vUvgCH5bzacNuEhfSLkV1qmI6BOItTG7qf8Vjiwi5VT8LAMRqpzjl4LDawSxUeYmAbrD4miIxZmbsYWHuoj2E2xizsJgaWdupjkIU1u4FBXgv10Sef/ctsoj665rJ/6Q3VR6ds9i+1nvpol8X+JddVH20yGbPIOxik1FMf7bIYswoPMUhvqD46ZTNmMYkYZDRWH11yGLP6aRjktlAfvfOxWOLCLrUrwMDSVn0MLMTiFyO7NNCKgbW7+hhqwwFWm9ilqQIGtk/Vx3gRi01mZolfAxg6RqqP2YDlAS9myfMEDuJM1aH7CY/zfsxSdDwO8AuvNkwb8bgVxiy1zMRiu15t+BzG42lNZmmkHYuTHmoj5Coe7zqwSi4bAMvrpdVGuWd42D5nlSKu4/Gsmtqon4aH9L2eUWqbiUdWM7XRMw8P2OPBJvGzBTyK+qmN0QImtyLZpIDTgKcwXWXolgKmaa3ZpFapmMAGvbrw3IuLMIpJ0v0g4nKmlLoofRsX2GpmkcpcBVyfVFEXdZKxuV+BRRqUj01OW3XRrwCbgo8ZJN99gK19jKrg5gC+q13Zo07p+MA6g5rw2IPR/WjmyHMjYHwhWE1EPsDI+jlz1D4Fpzf11ES7TIxgnxdj5LMNcLZ8riYmCjiltWSMemdiBasM6sG8E7BebmSKSp8GvC+VVg9Rj/BKrM0S6SdaMUtrrh565OIlLTIwRA2fAuaOKZxa0C0GzBPrsEMBuwH7/d5qIfAibrDClRUyTCrCLylWLbROwy6lLSvU6TXgbx2hErhZInZwwI8NqnoFSLjLSx0EnAX8C77hWaDgnRIRkuqog7ZpBID4WAbIa6kNiGgbx6kB/QKRBNLWUsyP27Q8IOSJADUQeQ2IWDDWwPiYxmQAKdPbqoF+uWSAFx3ZHtPINCDnT0bl574ZSHm5GsvjNjoNCBpfSfk1SCKGuCuU3fGY/A5IahvFKT39HIEYYFvmy+oELsoFsp4NVnrlbwJBC+Z4sDkVNluBsHl9FR73tYUkkDPZzODoW50XgLh7vJVdSByQNXuiO3PjMzIRCJzRUdn1zyUMZH/nxdZwVdbnA5G3eCg5/8NA3LxFASyNqdd1Ecic3k7JfZxDHijaUI6dCZuXBsTe4qHc/I8AiYWTjXg2Rt/sqA3IndFZuQ3MIxJAfD8TC+MzMkECku/3VWohZ4DUqTP8mReu6ro8IHvuQIXGjSwiFlg2VWJcTL2vi0D6P8KVWYXbQHDhfGsdy1J6fhqQ3zpZp8RcFggkA3g2xMys6JodtwENH8UqseavgfBZi4MZFe9Rz4CO0loP5eW7B4hv21eDY1C4Kr8XAC0zPlFc3PAC8oF0q6uBOTH1vikCPS+XV1o17gEV3471YkzCfkgHmjqWuCkrz/USHSB/VRmmpOx+O9A1raei4r/MAVoKJ+qyJNF3gbZ/VlRSsfeBnraxHENiWCDSRljlpZwCdkgUeV4XsaRNX9MGcofplJJxSiFQdL0bU+K5gzqQ0EwpdX0NFM3qjtjS/rnUgbiyyijmKtD0TBBjEn6JPsJqbyUUtF2iiW0MYkz5aQ7qQOEkF+XjPt8KNH1YmTVBsc/oAyn9eKVjGJ4FVP3FwJy4raUQPGmpcLhur4Cqaa0Qe9o1k0JwpaayaXIP6HrQm0EJOE0j6Xh5JVP9EtC16HPEoo62UgiEHeHKJfq4RJlbkUxKpXgagX1dsFKJ3CsCXaXveSbF8KNEI7CuCFQm4VsdQNnX9RCb2jKVSlD0S4ASCdtsB9pudWNUvPbTCSzLA5VH+BY70DavF2JVBxfSCYpWhyqNsjvsQN0LwcxKxA1KgW1TpLKodEAA6grjOWaFnyVSChz7KyuJ2NMi0DchBrGrdV7SCsRz9TmlwLe6LgGFVxoZFvNGagHc7axXBi6fPAEav2uPWNYeufSCF0PclIDnuBSg8tFSTEvQOYpB1g+B9Atblg9Utg5FTCs31k4xsO6sztGNr3/UAXS+E822oKqPaQbSje6uNDMPiAdKSwsMjIvrL1QDSJ4RRK/wRRlA69dNEevaNp1uULSvkY5OLq1P2IHaO72Yl1IHKQfS45F+NAqZnAT0zhuA2NcvLZQDyN/RUE8bY6tDFqD45XAGJuom9UBKmBxKFa7MnBcSUNzxnY6BMcwTi8mWk/r89vkThw4cPHL6z/hX7/IFcgEUneruTg+vfhdsQHLJmpX85OqpQ7u37dxz6OzNhOTMfPt7PKuDWNjGr95LzH97bfsPQz+qEx0e7Ofr4+MbEFqmcuM+4345+jjLQSiA9N/qGuhgbLY1C8htSb62afYXbauXK+3v6+Xu6eUbGBZVvVXfEbOWbT91Oykt2yICwDo3JsZz639xZL+4sG5Kr5oh7jwqRr1PubYTtj3Kl4gE0rM5FXXk01df8koCQgtpF3/+tHaIG4eKVe/uV7p83U6fjpv/27bWiI39JPdvtoynp1Z826lygCv6sOao3svu5JMIwHF3QhmebLoKMx4JQGYx9eS0poEGJEPO6KFnZMJOp8cf+t+w1lG+BiRPl8h+m18IBAKwXRtTTkcufcWpdx1A5oIbc5v68ogx1tVtGu6pQ/J2q/P9XSuBAGw3J1U2kMlYfdY9B5A588hnETrEiOvKj7tuJRCAPX5BQ3fyeDX/KUEAMmfs6e6LWHK+3KR7DgIBCK829grVkUQf0X9HsghkzjvS0xux5rpqS96QCAByzn/XwIsjA+fb9Psr+UBox/UhgYhFN7U/YiESgOPVnq9reHC4cV6xYw6+FYDUKf+ryCNGPWTKCzIBQNHTHd/U9eXx4f0bfLs30QbEdpzvakLsukvbMw5CAYD15dHZnaJMnPw4c8Wu80+9sQHBs5dFIba93Mp8YgGAkH1355QOlb14+eh8qnaesTc+VwCiPx/qiVh3r3HJBPu7I+fxiWVft6kWZOQ/DO8aUr39qFWnn+YJQHjpSls9Yt9dPn5Ctr9L9tznl/f9Mr5f67qVw/3cXfR63T/qDS4e/hFV6rUdOGnFgStJeXYJyC8cqo6YeL7NbeL9q2DLT35y6+Kpgzs2rFmxbNnKNb/vPHT60u2ElAKbALS0by6DWPmGVymhBG1rghE7X/eSSrL9GohY+jqXVJHt10DE1te9pIJsqwMRa1/3kuqxrg5E7H39KyrHujoQsfiNb6sa6+ogxORz7RNUjHV1EGL0dQNSVYt1dRBi9o2TC1WKdXUQYvh91omqxPZrEGL6oy+pEcfvwYjx/yhZfYj7IhDr7/K9XXWcr4LY//AzauNRM6QF7PZOXbwbyGsCzL+qCtsPJqQNrPtUTRwJRRpBw1xBPSQ2Q5rBavdVg3WSXjtg+F5QCydCkYawVoJKSOuCtISuyyR1sMZdU4DapqqCxEZIW1jqiBqQlrpqDNAoqwp4Xh9pDWs+VX7ScpPmwGOn8ktuhbSHI22Kb4+3BqH+K6VXMBhpEP3PKr3bUVoE/RKl94uLFgF9ZlF2Od2RJrHBG2V3s6w2IfSOsvvNRZvguU/RFX2BtIm6pYrudR2NAhorKrnzgVqF/gVKbp1eq9AuQ8E5xiKtYt23Cq7gI81CxSQF97qWZiHiqYK7FaFZCH2o4E57aRaC/1JwO/XahXsKbiWvWQh9qNykHzjNQniCchOmIs1ihSTl5vhWu1DnjYIbpV1o806L9kk+iUSHzfqeNrsgkWi0dmGMQBLJmp149ciW5fOmjB3xzX8eMXbSzCXr95yNT80XSCJM0Czw/wNSSvnPTyz7pl2NCC+DjufQe3McrzcFVmzYd/bW6+k2UoizOK2C+y4yCOkXfvykhp+eQx+eN5VpMXb7k0IiwFJeqxB0nQBS9sW5bUL1SMacR7XBm57bCLBRp1WIScJOSFzXo7Qeyd+91rhzudgdNmkVumRi5rg/t44ZYcqH9t31TsLrcqBWYYQdKyF+emUDwtm747ZMrJ5U1ijo/gcYSy8XVNUj3L26HSnEKLOpRsFzH0a525oYEQkDht8VsbEO0CiE3MJGvPulNyIkX3VVFi7iTI1C7Re45G+sziFyuve/I+IBG/XahB7ZmCSN8UZE5Wtst+AR56tNGOPAQrzcTo9IGzAzHYsHFTQJhp8AR9vuaojArp8m4PCuiSbB+zAOhctLIyLr2t3EwPKJJiHsDga583wRobn6FyTZCdM5LUL9l/LLnu6JyF3jjCQ32KDXIvTJlV3udA9E8upnZXfSV4swTpBb4VxPRPbal+V2v4IGwbgcZG5f5otI3+QvmaU10iD4HpeZtDMUEZ/r+kJeBZ9oECLuyOxiFURB/bBMWeUM1SD4TL5lkVNiW0RFtzkW2YgpewYEahAQH/nZgVRRLnkj9HRAfusc8rDe+19TD6RV9Gr18wOrLITVnoiWZY7KQMo48U20HmkZDZVHn86SPtwfUYietW98KHvCr538kOaRC+y67rn9AyW1RjTt8OyD5F6YXNMVaSPdYr+7nP8h8kfpqaIbnF5swqutH5fmkXZSFzFg51uxuMQ1XoiupqkFxVN4a14jT6S19G668G5R8VyIRrT1We54Pyn94JdRBqTFNEQPO5Ypvd/Ldoi+Yfuk97A//qVNKQ5pNTm/DqufOt4j/1sDhVDMpf+Ue25sVSPSdrpWn3Qp77+I63wQlVs++hfh5cYeQTzSfvIhfbe9Ef7lUiVEZ75fyt8Kb86ua0ZaUfeGP9yx/O3VR4jWxgl5Uur+wRE6pCXVl/3qSLpUMNGFWsh75k8tvZD21LfdyqX+iOJGF6RNdTWj/+9//vOf//znP//5z3/+85///Oc///nPf/7zn//85z//+c9//vOf//znP//5z3/+85///Oc///m/NAA=;" parent="1" vertex="1">
          <mxGeometry x="193" y="-46.88" width="72" height="72" as="geometry" />
        </mxCell>
        <mxCell id="ygprp_jiQ9DS4m_aR9y2-12" style="edgeStyle=orthogonalEdgeStyle;rounded=0;orthogonalLoop=1;jettySize=auto;html=1;exitX=0.179;exitY=0.017;exitDx=0;exitDy=0;entryX=0.731;entryY=0.995;entryDx=0;entryDy=0;exitPerimeter=0;entryPerimeter=0;" parent="1" source="ygprp_jiQ9DS4m_aR9y2-17" target="ygprp_jiQ9DS4m_aR9y2-3" edge="1">
          <mxGeometry relative="1" as="geometry">
            <mxPoint x="168" y="151" as="sourcePoint" />
            <mxPoint x="310" y="151" as="targetPoint" />
          </mxGeometry>
        </mxCell>
        <mxCell id="ygprp_jiQ9DS4m_aR9y2-32" style="edgeStyle=orthogonalEdgeStyle;rounded=0;orthogonalLoop=1;jettySize=auto;html=1;entryX=0.192;entryY=1.022;entryDx=0;entryDy=0;entryPerimeter=0;exitX=0.5;exitY=0;exitDx=0;exitDy=0;" parent="1" source="ygprp_jiQ9DS4m_aR9y2-16" target="ygprp_jiQ9DS4m_aR9y2-3" edge="1">
          <mxGeometry relative="1" as="geometry">
            <mxPoint x="189.5" y="119.32075471698113" as="targetPoint" />
          </mxGeometry>
        </mxCell>
        <mxCell id="ygprp_jiQ9DS4m_aR9y2-33" style="edgeStyle=orthogonalEdgeStyle;rounded=0;orthogonalLoop=1;jettySize=auto;html=1;exitX=1;exitY=0.5;exitDx=0;exitDy=0;entryX=0;entryY=0.5;entryDx=0;entryDy=0;" parent="1" source="ygprp_jiQ9DS4m_aR9y2-16" target="ygprp_jiQ9DS4m_aR9y2-17" edge="1">
          <mxGeometry relative="1" as="geometry" />
        </mxCell>
        <mxCell id="ygprp_jiQ9DS4m_aR9y2-16" value="" style="rounded=0;whiteSpace=wrap;html=1;" parent="1" vertex="1">
          <mxGeometry x="176" y="205.88" width="39" height="36.24" as="geometry" />
        </mxCell>
        <mxCell id="ygprp_jiQ9DS4m_aR9y2-17" value="" style="rounded=0;whiteSpace=wrap;html=1;" parent="1" vertex="1">
          <mxGeometry x="247" y="205.88" width="39" height="36.24" as="geometry" />
        </mxCell>
        <mxCell id="ygprp_jiQ9DS4m_aR9y2-27" value="" style="rounded=0;whiteSpace=wrap;html=1;" parent="1" vertex="1">
          <mxGeometry x="193" y="327" width="39" height="36.24" as="geometry" />
        </mxCell>
        <mxCell id="ygprp_jiQ9DS4m_aR9y2-28" value="" style="rounded=0;whiteSpace=wrap;html=1;" parent="1" vertex="1">
          <mxGeometry x="245" y="327" width="39" height="36.24" as="geometry" />
        </mxCell>
        <mxCell id="ygprp_jiQ9DS4m_aR9y2-29" value="Backend" style="text;html=1;align=center;verticalAlign=middle;whiteSpace=wrap;rounded=0;" parent="1" vertex="1">
          <mxGeometry x="86" y="172" width="60" height="30" as="geometry" />
        </mxCell>
        <mxCell id="ygprp_jiQ9DS4m_aR9y2-31" value="" style="edgeStyle=orthogonalEdgeStyle;rounded=0;orthogonalLoop=1;jettySize=auto;html=1;entryX=1;entryY=0.25;entryDx=0;entryDy=0;exitX=0.009;exitY=0.393;exitDx=0;exitDy=0;exitPerimeter=0;" parent="1" source="ygprp_jiQ9DS4m_aR9y2-3" target="ygprp_jiQ9DS4m_aR9y2-30" edge="1">
          <mxGeometry relative="1" as="geometry">
            <mxPoint x="175" y="-20" as="sourcePoint" />
            <mxPoint x="-136" y="111" as="targetPoint" />
          </mxGeometry>
        </mxCell>
        <mxCell id="Mj4WF_ou9WpPpcgh3H5z-2" style="edgeStyle=orthogonalEdgeStyle;rounded=0;orthogonalLoop=1;jettySize=auto;html=1;entryX=0.009;entryY=0.602;entryDx=0;entryDy=0;entryPerimeter=0;exitX=1;exitY=0.75;exitDx=0;exitDy=0;" parent="1" source="ygprp_jiQ9DS4m_aR9y2-30" target="ygprp_jiQ9DS4m_aR9y2-3" edge="1">
          <mxGeometry relative="1" as="geometry" />
        </mxCell>
        <mxCell id="ygprp_jiQ9DS4m_aR9y2-30" value="" style="rounded=0;whiteSpace=wrap;html=1;" parent="1" vertex="1">
          <mxGeometry x="-155" y="-29" width="39" height="36.24" as="geometry" />
        </mxCell>
        <mxCell id="ygprp_jiQ9DS4m_aR9y2-37" style="edgeStyle=orthogonalEdgeStyle;rounded=0;orthogonalLoop=1;jettySize=auto;html=1;exitX=0.916;exitY=1.007;exitDx=0;exitDy=0;exitPerimeter=0;entryX=0.667;entryY=0.031;entryDx=0;entryDy=0;entryPerimeter=0;" parent="1" source="ygprp_jiQ9DS4m_aR9y2-3" target="ygprp_jiQ9DS4m_aR9y2-17" edge="1">
          <mxGeometry relative="1" as="geometry">
            <mxPoint x="279" y="119" as="targetPoint" />
          </mxGeometry>
        </mxCell>
        <mxCell id="Mj4WF_ou9WpPpcgh3H5z-3" value="SUMA" style="text;html=1;align=center;verticalAlign=middle;whiteSpace=wrap;rounded=0;" parent="1" vertex="1">
          <mxGeometry x="176" y="-87" width="60" height="30" as="geometry" />
        </mxCell>
      </root>
    </mxGraphModel>
  </diagram>
</mxfile>
